<svg xmlns="http://www.w3.org/2000/svg" viewBox="0 0 150 50" fill="#94A3B8">
  <g transform="translate(10, 10)">
    <path d="M20 8h-3V4c0-1.1-.9-2-2-2H3C1.9 2 1 2.9 1 4v12h2c0 1.6 1.3 3 3 3s3-1.4 3-3h6c0 1.6 1.3 3 3 3s3-1.4 3-3h1v-5l-2-5zm-3.5 1.5l1.6 3.5H16v-3.5h.5zM6 17c-.5 0-1-.4-1-1s.4-1 1-1 1 .4 1 1-.4 1-1 1zm12 0c-.5 0-1-.4-1-1s.4-1 1-1 1 .4 1 1-.4 1-1 1z"/>
  </g>
  <text x="38" y="32" font-family="Inter, sans-serif" font-weight="700" font-size="14" fill="#94A3B8">TransWest</text>
</svg>
